<svg width="194" height="40" viewBox="0 0 194 40" fill="none" xmlns="http://www.w3.org/2000/svg">
<path d="M4.712 6.936L1.112 6.312V3.336H8.36C9.032 3.336 10.072 3.304 11.48 3.24C13.336 3.112 15.016 3.048 16.52 3.048C19.848 3.048 22.472 3.464 24.392 4.296C26.344 5.096 27.72 6.264 28.52 7.8C29.352 9.304 29.768 11.224 29.768 13.56C29.768 17.592 28.504 20.728 25.976 22.968C23.48 25.208 20.008 26.328 15.56 26.328C13.8 26.328 12.536 26.28 11.768 26.184V35.64L18.2 36.12V39H0.92V36.12L4.712 35.64V6.936ZM11.72 23.112C12.456 23.272 13.704 23.352 15.464 23.352C17.608 23.352 19.32 22.616 20.6 21.144C21.912 19.64 22.568 17.16 22.568 13.704C22.568 11.016 21.976 9.064 20.792 7.848C19.64 6.6 17.864 5.976 15.464 5.976C14.568 5.976 13.64 6.04 12.68 6.168C12.232 6.232 11.912 6.264 11.72 6.264V23.112ZM38.6064 7.944C37.4544 7.944 36.5424 7.608 35.8704 6.936C35.1984 6.264 34.8624 5.4 34.8624 4.344C34.8624 3.128 35.2464 2.12 36.0144 1.32C36.7824 0.519998 37.8064 0.119997 39.0864 0.119997C40.3664 0.119997 41.3424 0.471997 42.0144 1.176C42.6864 1.848 43.0224 2.696 43.0224 3.72C43.0224 5 42.6384 6.024 41.8704 6.792C41.1024 7.56 40.0304 7.944 38.6544 7.944H38.6064ZM36.0624 16.872L32.6544 15.96V12.744L41.4384 11.688H41.5344L42.8784 12.648V35.736L46.0944 36.12V39H32.7024V36.12L36.0624 35.688V16.872ZM54.815 15.768L53.711 20.472H50.255V12.312H71.423L72.527 14.808L59.759 32.52L56.399 35.976L67.151 35.448L69.455 29.928L72.719 30.312L71.951 39H49.679L48.479 36.36L61.583 19.032L65.039 15.432L54.815 15.768ZM81.5806 15.768L80.4766 20.472H77.0206V12.312H98.1886L99.2926 14.808L86.5246 32.52L83.1646 35.976L93.9166 35.448L96.2206 29.928L99.4846 30.312L98.7166 39H76.4446L75.2446 36.36L88.3486 19.032L91.8046 15.432L81.5806 15.768ZM102.538 31.512C102.538 28.6 103.994 26.408 106.906 24.936C109.85 23.464 113.642 22.712 118.282 22.68V21.576C118.282 20.264 118.138 19.24 117.85 18.504C117.594 17.768 117.098 17.224 116.362 16.872C115.658 16.488 114.618 16.296 113.242 16.296C111.674 16.296 110.266 16.504 109.018 16.92C107.77 17.304 106.474 17.816 105.13 18.456L103.642 15.384C104.122 14.968 104.922 14.472 106.042 13.896C107.194 13.32 108.554 12.824 110.122 12.408C111.69 11.96 113.306 11.736 114.97 11.736C117.434 11.736 119.354 12.056 120.73 12.696C122.138 13.336 123.146 14.36 123.754 15.768C124.362 17.176 124.666 19.064 124.666 21.432V36.12H127.258V38.808C126.618 38.968 125.706 39.128 124.522 39.288C123.338 39.448 122.298 39.528 121.402 39.528C120.314 39.528 119.578 39.368 119.194 39.048C118.842 38.728 118.666 38.072 118.666 37.08V35.784C117.802 36.744 116.682 37.608 115.306 38.376C113.93 39.144 112.378 39.528 110.65 39.528C109.178 39.528 107.818 39.224 106.57 38.616C105.354 37.976 104.378 37.064 103.642 35.88C102.906 34.664 102.538 33.208 102.538 31.512ZM113.722 35.544C114.394 35.544 115.162 35.352 116.026 34.968C116.89 34.552 117.642 34.056 118.282 33.48V25.608C115.402 25.608 113.242 26.104 111.802 27.096C110.394 28.056 109.69 29.304 109.69 30.84C109.69 32.376 110.042 33.544 110.746 34.344C111.482 35.144 112.474 35.544 113.722 35.544ZM130.254 36.168L133.422 35.784V16.872L130.35 16.008V12.696L137.79 11.688H137.934L139.134 12.648V13.704L138.99 17.592H139.134C139.358 16.952 139.886 16.168 140.718 15.24C141.55 14.28 142.59 13.448 143.838 12.744C145.118 12.008 146.494 11.64 147.966 11.64C148.67 11.64 149.278 11.736 149.79 11.928V19.128C148.83 18.456 147.662 18.12 146.286 18.12C143.95 18.12 141.918 18.744 140.19 19.992V35.736L145.758 36.168V39H130.254V36.168ZM158.56 7.944C157.408 7.944 156.496 7.608 155.824 6.936C155.152 6.264 154.816 5.4 154.816 4.344C154.816 3.128 155.2 2.12 155.968 1.32C156.736 0.519998 157.76 0.119997 159.04 0.119997C160.32 0.119997 161.296 0.471997 161.968 1.176C162.64 1.848 162.976 2.696 162.976 3.72C162.976 5 162.592 6.024 161.824 6.792C161.056 7.56 159.984 7.944 158.608 7.944H158.56ZM156.016 16.872L152.608 15.96V12.744L161.392 11.688H161.488L162.832 12.648V35.736L166.048 36.12V39H152.656V36.12L156.016 35.688V16.872ZM168.96 31.512C168.96 28.6 170.416 26.408 173.328 24.936C176.272 23.464 180.064 22.712 184.704 22.68V21.576C184.704 20.264 184.56 19.24 184.272 18.504C184.016 17.768 183.52 17.224 182.784 16.872C182.08 16.488 181.04 16.296 179.664 16.296C178.096 16.296 176.688 16.504 175.44 16.92C174.192 17.304 172.896 17.816 171.552 18.456L170.064 15.384C170.544 14.968 171.344 14.472 172.464 13.896C173.616 13.32 174.976 12.824 176.544 12.408C178.112 11.96 179.728 11.736 181.392 11.736C183.856 11.736 185.776 12.056 187.152 12.696C188.56 13.336 189.568 14.36 190.176 15.768C190.784 17.176 191.088 19.064 191.088 21.432V36.12H193.68V38.808C193.04 38.968 192.128 39.128 190.944 39.288C189.76 39.448 188.72 39.528 187.824 39.528C186.736 39.528 186 39.368 185.616 39.048C185.264 38.728 185.088 38.072 185.088 37.08V35.784C184.224 36.744 183.104 37.608 181.728 38.376C180.352 39.144 178.8 39.528 177.072 39.528C175.6 39.528 174.24 39.224 172.992 38.616C171.776 37.976 170.8 37.064 170.064 35.88C169.328 34.664 168.96 33.208 168.96 31.512ZM180.144 35.544C180.816 35.544 181.584 35.352 182.448 34.968C183.312 34.552 184.064 34.056 184.704 33.48V25.608C181.824 25.608 179.664 26.104 178.224 27.096C176.816 28.056 176.112 29.304 176.112 30.84C176.112 32.376 176.464 33.544 177.168 34.344C177.904 35.144 178.896 35.544 180.144 35.544Z" fill="white"/>
</svg>
