<svg width="40" height="33" viewBox="0 0 40 33" fill="none" xmlns="http://www.w3.org/2000/svg">
<path d="M40 3.84693C38.5254 4.5016 36.9449 4.94116 35.2833 5.14068C36.9792 4.12439 38.2823 2.51578 38.8933 0.601668C37.3096 1.54002 35.5483 2.22274 33.6809 2.5906C32.1846 0.994466 30.0522 0 27.6923 0C23.1595 0 19.4841 3.67236 19.4841 8.20513C19.4841 8.84732 19.5589 9.47393 19.6992 10.0756C12.8782 9.73268 6.83345 6.46559 2.78388 1.49949C2.07622 2.7153 1.67407 4.12439 1.67407 5.627C1.67407 8.47323 3.12057 10.9859 5.3246 12.4604C3.97787 12.4168 2.71218 12.0458 1.60549 11.4317C1.60549 11.466 1.60549 11.5003 1.60549 11.5346C1.60549 15.5124 4.43613 18.8263 8.18642 19.5838C7.50058 19.7709 6.77422 19.8706 6.02603 19.8706C5.49606 19.8706 4.98169 19.8207 4.47978 19.721C5.52724 22.9787 8.5574 25.3573 12.1456 25.4228C9.33988 27.6237 5.80157 28.9331 1.95464 28.9331C1.29062 28.9331 0.639078 28.8956 0 28.8177C3.62871 31.1496 7.94326 32.5057 12.5789 32.5057C27.6736 32.5057 35.9286 20.0016 35.9286 9.15907C35.9286 8.80368 35.9193 8.44517 35.9068 8.09602C37.5092 6.93944 38.8995 5.49295 40 3.84693Z" fill="#EBE0E0"/>
</svg>
