<svg width="250" height="40" viewBox="0 0 250 40" fill="none" xmlns="http://www.w3.org/2000/svg">
<path d="M0.136 3.336H14.728V6.312L10.648 6.936L17.8 28.44L19.192 33.288L20.392 28.392L27.112 6.936L23.32 6.312V3.336H34.936V6.312L31.864 6.936L20.824 39.336H15.112L3.016 6.936L0.136 6.312V3.336ZM48.2091 39.528C43.9851 39.528 40.8331 38.296 38.7531 35.832C36.7051 33.336 35.6811 29.944 35.6811 25.656C35.6811 22.776 36.2091 20.28 37.2651 18.168C38.3531 16.056 39.8731 14.44 41.8251 13.32C43.7771 12.2 46.0331 11.64 48.5931 11.64C51.7931 11.64 54.2571 12.488 55.9851 14.184C57.7131 15.848 58.6091 18.232 58.6731 21.336C58.6731 23.448 58.5451 25.016 58.2891 26.04H42.6891C42.8171 28.952 43.5051 31.224 44.7531 32.856C46.0011 34.456 47.7771 35.256 50.0811 35.256C51.3291 35.256 52.6091 35.048 53.9211 34.632C55.2651 34.216 56.3211 33.72 57.0891 33.144L58.2891 35.784C57.4251 36.712 56.0171 37.576 54.0651 38.376C52.1451 39.144 50.1931 39.528 48.2091 39.528ZM51.9531 23.16C52.0171 22.264 52.0491 21.576 52.0491 21.096C52.0491 16.84 50.6251 14.712 47.7771 14.712C46.2091 14.712 44.9931 15.336 44.1291 16.584C43.2651 17.832 42.7851 20.024 42.6891 23.16H51.9531ZM62.5038 36.168L65.6718 35.784V16.872L62.5998 16.008V12.696L70.0398 11.688H70.1838L71.3838 12.648V13.704L71.2398 17.592H71.3838C71.6078 16.952 72.1358 16.168 72.9678 15.24C73.7998 14.28 74.8398 13.448 76.0878 12.744C77.3678 12.008 78.7438 11.64 80.2158 11.64C80.9198 11.64 81.5278 11.736 82.0398 11.928V19.128C81.0798 18.456 79.9118 18.12 78.5358 18.12C76.1998 18.12 74.1678 18.744 72.4398 19.992V35.736L78.0078 36.168V39H62.5038V36.168ZM84.5695 31.512C84.5695 28.6 86.0255 26.408 88.9375 24.936C91.8815 23.464 95.6735 22.712 100.314 22.68V21.576C100.314 20.264 100.17 19.24 99.8815 18.504C99.6255 17.768 99.1295 17.224 98.3935 16.872C97.6895 16.488 96.6495 16.296 95.2735 16.296C93.7055 16.296 92.2975 16.504 91.0495 16.92C89.8015 17.304 88.5055 17.816 87.1615 18.456L85.6735 15.384C86.1535 14.968 86.9535 14.472 88.0735 13.896C89.2255 13.32 90.5855 12.824 92.1535 12.408C93.7215 11.96 95.3375 11.736 97.0015 11.736C99.4655 11.736 101.386 12.056 102.762 12.696C104.17 13.336 105.178 14.36 105.786 15.768C106.394 17.176 106.698 19.064 106.698 21.432V36.12H109.29V38.808C108.65 38.968 107.738 39.128 106.554 39.288C105.37 39.448 104.33 39.528 103.434 39.528C102.346 39.528 101.61 39.368 101.226 39.048C100.874 38.728 100.698 38.072 100.698 37.08V35.784C99.8335 36.744 98.7135 37.608 97.3375 38.376C95.9615 39.144 94.4095 39.528 92.6815 39.528C91.2095 39.528 89.8495 39.224 88.6015 38.616C87.3855 37.976 86.4095 37.064 85.6735 35.88C84.9375 34.664 84.5695 33.208 84.5695 31.512ZM95.7535 35.544C96.4255 35.544 97.1935 35.352 98.0575 34.968C98.9215 34.552 99.6735 34.056 100.314 33.48V25.608C97.4335 25.608 95.2735 26.104 93.8335 27.096C92.4255 28.056 91.7215 29.304 91.7215 30.84C91.7215 32.376 92.0735 33.544 92.7775 34.344C93.5135 35.144 94.5055 35.544 95.7535 35.544ZM127.228 6.936L123.628 6.312V3.336H130.876C131.548 3.336 132.588 3.304 133.996 3.24C135.852 3.112 137.532 3.048 139.036 3.048C142.364 3.048 144.988 3.464 146.908 4.296C148.86 5.096 150.236 6.264 151.036 7.8C151.868 9.304 152.284 11.224 152.284 13.56C152.284 17.592 151.02 20.728 148.492 22.968C145.996 25.208 142.524 26.328 138.076 26.328C136.316 26.328 135.052 26.28 134.284 26.184V35.64L140.716 36.12V39H123.436V36.12L127.228 35.64V6.936ZM134.236 23.112C134.972 23.272 136.22 23.352 137.98 23.352C140.124 23.352 141.836 22.616 143.116 21.144C144.428 19.64 145.084 17.16 145.084 13.704C145.084 11.016 144.492 9.064 143.308 7.848C142.156 6.6 140.38 5.976 137.98 5.976C137.084 5.976 136.156 6.04 135.196 6.168C134.748 6.232 134.428 6.264 134.236 6.264V23.112ZM161.122 7.944C159.97 7.944 159.058 7.608 158.386 6.936C157.714 6.264 157.378 5.4 157.378 4.344C157.378 3.128 157.762 2.12 158.53 1.32C159.298 0.519998 160.322 0.119997 161.602 0.119997C162.882 0.119997 163.858 0.471997 164.53 1.176C165.202 1.848 165.538 2.696 165.538 3.72C165.538 5 165.154 6.024 164.386 6.792C163.618 7.56 162.546 7.944 161.17 7.944H161.122ZM158.578 16.872L155.17 15.96V12.744L163.954 11.688H164.05L165.394 12.648V35.736L168.61 36.12V39H155.218V36.12L158.578 35.688V16.872ZM177.331 15.768L176.227 20.472H172.771V12.312H193.939L195.043 14.808L182.275 32.52L178.915 35.976L189.667 35.448L191.971 29.928L195.235 30.312L194.467 39H172.195L170.995 36.36L184.099 19.032L187.555 15.432L177.331 15.768ZM204.096 15.768L202.992 20.472H199.536V12.312H220.704L221.808 14.808L209.04 32.52L205.68 35.976L216.432 35.448L218.736 29.928L222 30.312L221.232 39H198.96L197.76 36.36L210.864 19.032L214.32 15.432L204.096 15.768ZM225.054 31.512C225.054 28.6 226.51 26.408 229.422 24.936C232.366 23.464 236.158 22.712 240.798 22.68V21.576C240.798 20.264 240.654 19.24 240.366 18.504C240.11 17.768 239.614 17.224 238.878 16.872C238.174 16.488 237.134 16.296 235.758 16.296C234.19 16.296 232.782 16.504 231.534 16.92C230.286 17.304 228.99 17.816 227.646 18.456L226.158 15.384C226.638 14.968 227.438 14.472 228.558 13.896C229.71 13.32 231.07 12.824 232.638 12.408C234.206 11.96 235.822 11.736 237.486 11.736C239.95 11.736 241.87 12.056 243.246 12.696C244.654 13.336 245.662 14.36 246.27 15.768C246.878 17.176 247.182 19.064 247.182 21.432V36.12H249.774V38.808C249.134 38.968 248.222 39.128 247.038 39.288C245.854 39.448 244.814 39.528 243.918 39.528C242.83 39.528 242.094 39.368 241.71 39.048C241.358 38.728 241.182 38.072 241.182 37.08V35.784C240.318 36.744 239.198 37.608 237.822 38.376C236.446 39.144 234.894 39.528 233.166 39.528C231.694 39.528 230.334 39.224 229.086 38.616C227.87 37.976 226.894 37.064 226.158 35.88C225.422 34.664 225.054 33.208 225.054 31.512ZM236.238 35.544C236.91 35.544 237.678 35.352 238.542 34.968C239.406 34.552 240.158 34.056 240.798 33.48V25.608C237.918 25.608 235.758 26.104 234.318 27.096C232.91 28.056 232.206 29.304 232.206 30.84C232.206 32.376 232.558 33.544 233.262 34.344C233.998 35.144 234.99 35.544 236.238 35.544Z" fill="white"/>
</svg>
